<svg width="252" height="113" viewBox="0 0 252 113" fill="none" xmlns="http://www.w3.org/2000/svg">
<g clip-path="url(#clip0_1953_2509)">
<path d="M120.883 16.2824C121.557 16.5719 122.062 17.1287 122.22 17.8303V17.886C122.388 18.5876 122.242 19.3338 121.771 19.8683C121.434 20.2581 121.265 20.7927 121.377 21.3384C121.501 21.9509 121.939 22.4297 122.5 22.6302C123.017 22.8195 123.421 23.2205 123.545 23.755L123.578 23.9221C123.657 24.2784 123.522 24.6348 123.253 24.8909C122.994 25.1471 122.86 25.5146 122.938 25.8932C123.017 26.2941 123.298 26.5948 123.657 26.7173C123.983 26.8287 124.241 27.096 124.308 27.4412V27.4635C124.364 27.7196 124.274 27.9646 124.095 28.154C123.904 28.3544 123.848 28.6662 123.994 28.9558C124.106 29.1674 124.331 29.3122 124.566 29.3344C125.061 29.3678 125.42 28.9335 125.33 28.4881C125.285 28.2431 125.106 28.0537 124.881 27.9646C124.667 27.8867 124.522 27.6862 124.477 27.4523V27.4189C124.409 27.096 124.499 26.7396 124.757 26.528C125.061 26.283 125.218 25.8821 125.139 25.47C125.061 25.0914 124.802 24.7907 124.454 24.6571C124.106 24.5234 123.848 24.245 123.78 23.8887L123.747 23.7216C123.646 23.187 123.87 22.6525 124.274 22.285C124.712 21.8952 124.937 21.2827 124.814 20.6702C124.701 20.1245 124.342 19.6901 123.882 19.4563C123.242 19.1333 122.815 18.4985 122.691 17.7969V17.7413C122.556 17.0619 122.759 16.338 123.264 15.8592C123.814 15.3357 124.084 14.5451 123.87 13.7544C123.601 12.6741 122.489 11.9614 121.389 12.1507C120.165 12.3511 119.367 13.5205 119.615 14.7121C119.76 15.436 120.255 16.0039 120.895 16.2824H120.883Z" fill="#6D77E9"/>
<path d="M130.282 50.8616C129.631 50.6164 129.17 50.0263 129.024 49.3469V49.2912C128.856 48.5896 129.002 47.8436 129.473 47.3088C129.81 46.9192 129.979 46.3845 129.866 45.839C129.743 45.2264 129.305 44.7475 128.744 44.547C128.227 44.3577 127.823 43.9569 127.699 43.4224L127.665 43.2553C127.587 42.8988 127.722 42.5424 127.991 42.2863C128.249 42.0301 128.384 41.6627 128.306 41.2841C128.227 40.8721 127.924 40.56 127.542 40.4488C127.216 40.3485 126.992 40.059 126.936 39.736V39.7025C126.88 39.4798 126.936 39.2349 127.104 39.079C127.273 38.9231 127.362 38.6782 127.317 38.433C127.228 37.9875 126.733 37.7204 126.284 37.9431C126.071 38.0544 125.914 38.2661 125.903 38.511C125.88 38.834 126.06 39.0902 126.307 39.2127C126.543 39.3239 126.722 39.5132 126.767 39.7694V39.7918C126.835 40.137 126.711 40.471 126.453 40.7049C126.172 40.9611 126.026 41.3397 126.105 41.7405C126.183 42.1192 126.441 42.42 126.79 42.5536C127.138 42.6873 127.396 42.9657 127.464 43.3221L127.497 43.489C127.598 44.0237 127.373 44.5582 126.969 44.9256C126.531 45.3155 126.307 45.9281 126.43 46.5404C126.543 47.0861 126.902 47.5206 127.362 47.7543C128.002 48.0773 128.429 48.7121 128.553 49.4137V49.4693C128.687 50.1822 128.429 50.8838 127.924 51.4071C127.441 51.8972 127.205 52.61 127.351 53.3338C127.587 54.5253 128.777 55.2938 129.979 55.0266C131.068 54.7815 131.82 53.7012 131.652 52.61C131.528 51.7969 130.978 51.1734 130.271 50.895L130.282 50.8616Z" fill="#6D77E9"/>
<path d="M107.914 24.4678C108.531 24.8798 109.283 24.9355 109.935 24.6794C110.609 24.4121 111.372 24.4455 111.99 24.8353L112.035 24.8576C112.641 25.2362 113.068 25.871 113.124 26.5837C113.157 27.096 113.427 27.5972 113.899 27.8979C114.426 28.2431 115.078 28.2765 115.605 28.0204C116.1 27.7865 116.683 27.7865 117.144 28.0872L117.29 28.1763C117.604 28.3767 117.75 28.722 117.75 29.0895C117.75 29.4458 117.919 29.8022 118.244 30.0249C118.581 30.2477 118.997 30.2588 119.334 30.1029C119.648 29.9581 120.018 29.9693 120.31 30.1586H120.322C120.535 30.3145 120.647 30.5484 120.658 30.8045C120.67 31.0829 120.849 31.3391 121.153 31.4393C121.377 31.5173 121.647 31.4616 121.826 31.3056C122.197 30.9827 122.141 30.4259 121.759 30.1697C121.546 30.0249 121.287 30.0138 121.074 30.114C120.861 30.2143 120.614 30.1697 120.423 30.0361L120.389 30.0138C120.108 29.8245 119.929 29.5127 119.962 29.1786C119.996 28.7888 119.827 28.399 119.479 28.1651C119.154 27.9535 118.761 27.9313 118.424 28.0649C118.087 28.2097 117.705 28.1985 117.402 27.9981L117.256 27.8979C116.807 27.586 116.582 27.0626 116.605 26.5169C116.627 25.9267 116.358 25.3476 115.83 25.0023C115.358 24.6905 114.797 24.6348 114.303 24.8019C113.618 25.0246 112.865 24.8687 112.282 24.4678L112.237 24.4344C111.664 24.0335 111.293 23.3987 111.305 22.6971C111.327 21.9398 110.945 21.2048 110.238 20.7816C109.272 20.2136 107.992 20.4809 107.341 21.3941C106.622 22.3964 106.892 23.7773 107.914 24.4566V24.4678Z" fill="#6D77E9"/>
<path d="M143.431 42.7874C142.769 42.2976 141.926 42.2417 141.241 42.5425C140.601 42.8208 139.86 42.7318 139.276 42.3532L139.231 42.3198C138.625 41.9411 138.198 41.3064 138.142 40.5935C138.109 40.0812 137.839 39.5801 137.367 39.2793C136.84 38.9341 136.188 38.9007 135.661 39.1569C135.167 39.3908 134.583 39.3908 134.122 39.09L133.976 39.001C133.662 38.8004 133.516 38.4552 133.516 38.0878C133.516 37.7314 133.347 37.375 133.022 37.1523C132.674 36.9186 132.236 36.9073 131.888 37.0967C131.596 37.2525 131.225 37.2081 130.944 37.0188L130.911 36.9964C130.72 36.8739 130.585 36.6624 130.596 36.4285C130.596 36.1945 130.495 35.9608 130.282 35.816C129.9 35.5598 129.361 35.7269 129.204 36.1945C129.125 36.4172 129.181 36.6846 129.339 36.8627C129.552 37.1079 129.866 37.1635 130.125 37.0745C130.372 36.9854 130.63 36.9964 130.855 37.1413H130.866C131.158 37.3416 131.304 37.6758 131.292 38.021C131.27 38.3996 131.45 38.7673 131.787 38.99C132.112 39.2015 132.505 39.2237 132.842 39.09C133.179 38.9454 133.561 38.9566 133.864 39.1569L134.01 39.2571C134.459 39.5689 134.684 40.0924 134.661 40.6382C134.639 41.2283 134.908 41.8075 135.436 42.1527C135.908 42.4644 136.469 42.5203 136.963 42.3532C137.648 42.1304 138.401 42.2863 138.985 42.6872L139.029 42.7206C139.625 43.1326 139.95 43.8233 139.961 44.5359C139.961 45.2263 140.309 45.8945 140.927 46.3067C141.949 46.9859 143.33 46.6963 143.993 45.6607C144.588 44.7252 144.352 43.4334 143.453 42.7764L143.431 42.7874Z" fill="#6D77E9"/>
<path d="M108.172 38.2884C108.464 37.6202 109.025 37.1191 109.733 36.9632H109.789C110.496 36.7961 111.249 36.9408 111.788 37.4087C112.181 37.7427 112.72 37.9098 113.27 37.7985C113.887 37.6758 114.37 37.2416 114.572 36.6849C114.763 36.1726 115.168 35.7715 115.707 35.6491L115.875 35.6156C116.234 35.5377 116.594 35.6713 116.852 35.9386C117.11 36.1948 117.481 36.3284 117.863 36.2504C118.267 36.1726 118.57 35.894 118.694 35.5377C118.806 35.2147 119.075 34.9586 119.423 34.8918H119.446C119.704 34.8361 119.951 34.9252 120.142 35.1033C120.344 35.2927 120.659 35.3483 120.951 35.2036C121.164 35.0922 121.31 34.8695 121.332 34.6356C121.366 34.1456 120.928 33.7892 120.479 33.8783C120.232 33.9229 120.041 34.1011 119.951 34.3238C119.873 34.5354 119.67 34.6802 119.435 34.7247H119.401C119.075 34.7915 118.716 34.7024 118.503 34.4463C118.256 34.1456 117.851 33.9897 117.436 34.0677C117.054 34.1456 116.751 34.4018 116.616 34.747C116.482 35.0922 116.201 35.3483 115.841 35.4152L115.673 35.4486C115.134 35.5488 114.595 35.3261 114.224 34.9252C113.831 34.4908 113.214 34.2681 112.596 34.3906C112.046 34.502 111.608 34.8583 111.372 35.315C111.047 35.9498 110.407 36.3728 109.699 36.4953H109.643C108.958 36.629 108.228 36.4287 107.745 35.9274C107.217 35.3818 106.42 35.1145 105.623 35.3261C104.534 35.5934 103.815 36.6958 104.006 37.7873C104.208 39.0012 105.387 39.7919 106.589 39.547C107.318 39.402 107.891 38.9119 108.172 38.2772V38.2884Z" fill="#6D77E9"/>
<path d="M143.05 28.9781C142.802 29.624 142.207 30.0806 141.522 30.2254H141.466C140.759 30.3925 140.006 30.2477 139.467 29.7799C139.074 29.4459 138.535 29.2788 137.985 29.3902C137.368 29.5127 136.885 29.947 136.683 30.5038C136.492 31.0161 136.088 31.417 135.548 31.5395L135.38 31.5729C135.021 31.6509 134.661 31.5172 134.403 31.25C134.145 30.9938 133.774 30.8602 133.393 30.9381C132.977 31.0161 132.663 31.3168 132.55 31.6954C132.449 32.0184 132.157 32.2411 131.832 32.2968H131.798C131.573 32.3525 131.326 32.2968 131.169 32.1298C131.012 31.9627 130.765 31.8736 130.518 31.9182C130.069 32.0073 129.799 32.4973 130.024 32.9427C130.136 33.1543 130.35 33.3102 130.597 33.3214C130.922 33.3436 131.18 33.1655 131.304 32.9205C131.416 32.6866 131.607 32.5084 131.865 32.4639H131.888C132.236 32.397 132.573 32.5195 132.809 32.7757C133.067 33.0541 133.449 33.1989 133.853 33.1209C134.235 33.043 134.538 32.7868 134.673 32.4416C134.807 32.0963 135.088 31.8402 135.447 31.7734L135.616 31.74C136.155 31.6398 136.694 31.8625 137.064 32.2634C137.457 32.6977 138.075 32.9205 138.692 32.798C139.243 32.6866 139.681 32.3302 139.916 31.8736C140.242 31.2388 140.882 30.8156 141.59 30.6931H141.646C142.364 30.5595 143.072 30.8156 143.6 31.3168C144.094 31.7957 144.812 32.0295 145.542 31.8848C146.744 31.6509 147.519 30.4704 147.249 29.2788C147.002 28.1986 145.913 27.4524 144.812 27.6195C143.993 27.7419 143.364 28.2877 143.083 28.9892L143.05 28.9781Z" fill="#6D77E9"/>
<path d="M119.884 45.2265C120.232 44.703 120.265 44.057 120.007 43.5337C119.771 43.0436 119.771 42.4644 120.074 42.008L120.164 41.8631C120.366 41.5513 120.714 41.4066 121.085 41.4066C121.445 41.4066 121.804 41.2395 122.028 40.9165C122.253 40.5826 122.264 40.1705 122.107 39.8363C121.961 39.5245 121.972 39.1569 122.163 38.8675C122.309 38.6336 122.545 38.5333 122.803 38.5111C123.084 38.4999 123.342 38.3218 123.443 38.021C123.522 37.7983 123.466 37.5312 123.308 37.3528C122.983 36.9854 122.421 37.0411 122.163 37.4197C122.017 37.6312 122.006 37.8873 122.107 38.0991C122.197 38.3106 122.163 38.5555 122.028 38.7448L122.006 38.7783C121.815 39.0569 121.501 39.235 121.164 39.2015C120.771 39.1681 120.378 39.3352 120.142 39.6804C119.929 40.0034 119.906 40.3933 120.041 40.7272C120.187 41.0614 120.176 41.4401 119.973 41.7406L119.872 41.8855C119.558 42.331 119.03 42.5537 118.48 42.5313C117.885 42.5091 117.301 42.7765 116.953 43.2997C116.638 43.7677 116.582 44.3244 116.751 44.8145C116.975 45.4936 116.818 46.2399 116.414 46.8191L116.38 46.8635C115.976 47.4314 115.336 47.799 114.628 47.7878C113.865 47.7656 113.124 48.1442 112.697 48.8459C112.124 49.8036 112.394 51.0732 113.315 51.7192C114.325 52.4318 115.718 52.1646 116.403 51.151C116.818 50.5387 116.874 49.7924 116.616 49.1464C116.347 48.4782 116.38 47.721 116.773 47.1084L116.795 47.064C117.178 46.4626 117.818 46.0394 118.536 45.9838C119.053 45.9503 119.558 45.683 119.861 45.2153L119.884 45.2265Z" fill="#6D77E9"/>
<path d="M131.36 21.9509C131.012 22.4744 130.978 23.1203 131.236 23.6437C131.472 24.1337 131.472 24.7128 131.169 25.1694L131.079 25.3142C130.877 25.626 130.529 25.7708 130.158 25.7708C129.799 25.7708 129.44 25.9378 129.215 26.2608C128.979 26.606 128.968 27.0403 129.159 27.3856C129.316 27.6751 129.271 28.0426 129.08 28.3211L129.058 28.3545C128.934 28.5438 128.721 28.6774 128.485 28.6663C128.249 28.6663 128.013 28.7665 127.868 28.9781C127.609 29.3568 127.778 29.8913 128.249 30.0472C128.474 30.1252 128.743 30.0695 128.923 29.9136C129.17 29.702 129.226 29.3902 129.136 29.134C129.047 28.889 129.058 28.6329 129.204 28.4102C129.395 28.1095 129.732 27.9535 130.08 27.9758C130.461 27.9981 130.832 27.8199 131.056 27.4858C131.27 27.1629 131.292 26.7731 131.158 26.439C131.012 26.1049 131.023 25.7262 131.225 25.4256L131.326 25.2808C131.64 24.8353 132.168 24.6126 132.718 24.6349C133.314 24.6571 133.898 24.3899 134.246 23.8664C134.56 23.3987 134.616 22.8419 134.448 22.3518C134.223 21.6725 134.38 20.9264 134.785 20.3473L134.818 20.3027C135.234 19.7125 135.93 19.3895 136.649 19.3784C137.345 19.3784 138.018 19.0331 138.434 18.4206C139.119 17.4072 138.827 16.0374 137.783 15.3804C136.839 14.7901 135.537 15.024 134.874 15.9149C134.38 16.572 134.324 17.4072 134.627 18.0865C134.908 18.7213 134.818 19.4563 134.436 20.0354L134.403 20.08C134.021 20.6814 133.381 21.1045 132.662 21.1602C132.146 21.1936 131.64 21.4609 131.337 21.9287L131.36 21.9509Z" fill="#6D77E9"/>
<path d="M114.572 19.4007C115.302 19.4118 115.987 19.7236 116.403 20.325L116.436 20.3696C116.852 20.9487 117.009 21.7059 116.773 22.3741C116.605 22.8641 116.661 23.421 116.976 23.8887C117.324 24.4121 117.919 24.6794 118.503 24.6571C119.053 24.6349 119.58 24.8576 119.895 25.3031L119.996 25.4478C120.209 25.7485 120.209 26.1272 120.063 26.4613C119.917 26.7954 119.94 27.1851 120.164 27.5081C120.389 27.8422 120.771 28.0092 121.141 27.9981C121.49 27.9758 121.826 28.1318 122.017 28.4213C122.163 28.6552 122.174 28.9113 122.085 29.1563C121.995 29.4125 122.051 29.7243 122.298 29.9359C122.478 30.0918 122.747 30.1475 122.972 30.0695C123.443 29.9136 123.601 29.379 123.354 29.0004C123.207 28.7888 122.972 28.6774 122.736 28.6886C122.5 28.6886 122.287 28.5661 122.163 28.3768L122.141 28.3433C121.95 28.0649 121.905 27.7086 122.062 27.4079C122.242 27.0626 122.242 26.6283 122.006 26.2831C121.793 25.9601 121.433 25.7931 121.063 25.7931C120.692 25.7931 120.344 25.6483 120.142 25.3365L120.052 25.1917C119.76 24.7351 119.749 24.1671 119.985 23.666C120.232 23.1314 120.209 22.4966 119.861 21.9732C119.547 21.5055 119.053 21.2493 118.536 21.2048C117.818 21.1491 117.178 20.7259 116.796 20.1246L116.762 20.08C116.392 19.5009 116.29 18.7547 116.571 18.1311C116.874 17.4406 116.818 16.6165 116.324 15.9595C115.65 15.0685 114.359 14.8347 113.416 15.4249C112.372 16.082 112.08 17.4518 112.765 18.4652C113.18 19.0777 113.854 19.4118 114.55 19.4229L114.572 19.4007Z" fill="#6D77E9"/>
<path d="M136.593 47.7878C135.896 47.81 135.245 47.4314 134.841 46.8635L134.807 46.8191C134.392 46.2399 134.234 45.4827 134.47 44.8145C134.639 44.3244 134.583 43.7677 134.268 43.2997C133.92 42.7765 133.325 42.5091 132.741 42.5313C132.191 42.5537 131.663 42.331 131.348 41.8855L131.248 41.7406C131.034 41.4401 131.034 41.0614 131.18 40.7272C131.326 40.3933 131.304 40.0034 131.079 39.6804C130.843 39.3352 130.45 39.1569 130.057 39.2015C129.72 39.235 129.406 39.0569 129.215 38.7783L129.193 38.7448C129.069 38.5555 129.024 38.3106 129.114 38.0991C129.215 37.8873 129.204 37.6312 129.058 37.4197C128.8 37.0411 128.238 36.9854 127.913 37.3528C127.755 37.5312 127.699 37.7983 127.778 38.021C127.879 38.3328 128.148 38.4999 128.418 38.5111C128.676 38.5221 128.923 38.6336 129.058 38.8451C129.249 39.1459 129.26 39.5133 129.114 39.8251C128.957 40.1593 128.968 40.5713 129.193 40.9053C129.406 41.2283 129.765 41.3954 130.136 41.3954C130.506 41.3954 130.855 41.5403 131.057 41.8521L131.146 41.9968C131.438 42.4535 131.45 43.0214 131.214 43.5225C130.967 44.057 130.989 44.6918 131.337 45.2153C131.652 45.683 132.146 45.9391 132.662 45.9838C133.381 46.0394 134.021 46.4626 134.403 47.064L134.425 47.1084C134.818 47.721 134.852 48.4672 134.583 49.1464C134.324 49.7812 134.38 50.5387 134.796 51.151C135.481 52.1646 136.873 52.4205 137.884 51.7192C138.793 51.0732 139.074 49.8036 138.501 48.8459C138.075 48.1442 137.322 47.7656 136.57 47.7878H136.593Z" fill="#6D77E9"/>
<path d="M105.746 31.8736C106.476 32.0184 107.195 31.7845 107.689 31.3056C108.217 30.8045 108.924 30.5483 109.643 30.6708H109.699C110.406 30.8045 111.046 31.2276 111.372 31.8624C111.608 32.319 112.046 32.6754 112.596 32.7868C113.214 32.9093 113.831 32.6866 114.224 32.2522C114.595 31.8513 115.122 31.6286 115.673 31.7288L115.841 31.7622C116.201 31.829 116.481 32.0852 116.616 32.4304C116.751 32.7645 117.043 33.0318 117.436 33.1097C117.84 33.1877 118.222 33.0429 118.48 32.7645C118.716 32.5084 119.064 32.3747 119.401 32.4416H119.423C119.681 32.4972 119.872 32.6754 119.985 32.9093C120.108 33.1543 120.366 33.3325 120.692 33.3102C120.928 33.2879 121.152 33.1431 121.265 32.9316C121.489 32.4861 121.22 31.9961 120.771 31.907C120.524 31.8624 120.277 31.9404 120.119 32.1186C119.962 32.2856 119.715 32.3413 119.491 32.2968H119.457C119.131 32.2299 118.839 31.9961 118.738 31.6843C118.626 31.3167 118.312 31.0161 117.896 30.927C117.514 30.849 117.133 30.9826 116.885 31.2388C116.627 31.5061 116.268 31.6397 115.909 31.5617L115.74 31.5283C115.201 31.4058 114.797 31.0049 114.606 30.4926C114.404 29.947 113.932 29.5015 113.303 29.379C112.753 29.2676 112.214 29.4347 111.821 29.7688C111.282 30.2365 110.519 30.3813 109.822 30.2254H109.766C109.081 30.0694 108.486 29.6129 108.239 28.9669C107.97 28.2653 107.329 27.7196 106.51 27.5971C105.398 27.4412 104.32 28.1762 104.073 29.2565C103.804 30.4481 104.567 31.6286 105.78 31.8624L105.746 31.8736Z" fill="#6D77E9"/>
<path d="M145.621 35.3261C144.823 35.1256 144.026 35.3929 143.498 35.9274C143.015 36.4287 142.297 36.618 141.601 36.5065H141.544C140.837 36.3728 140.197 35.9498 139.871 35.315C139.636 34.8583 139.198 34.502 138.647 34.3906C138.03 34.2681 137.412 34.4908 137.019 34.9252C136.649 35.3261 136.121 35.5488 135.571 35.4486L135.402 35.4152C135.043 35.3483 134.762 35.0922 134.627 34.747C134.493 34.4129 134.201 34.1456 133.808 34.0677C133.392 33.9897 132.988 34.1456 132.741 34.4463C132.528 34.7024 132.168 34.8027 131.843 34.7358H131.809C131.584 34.6802 131.382 34.5354 131.292 34.3238C131.214 34.1011 131.023 33.934 130.765 33.8783C130.315 33.7892 129.878 34.1456 129.911 34.6356C129.922 34.8806 130.08 35.1033 130.293 35.2036C130.585 35.3483 130.899 35.2815 131.102 35.1033C131.292 34.9363 131.539 34.8361 131.798 34.8918H131.82C132.168 34.9586 132.426 35.2147 132.55 35.5377C132.674 35.894 132.977 36.1726 133.381 36.2504C133.763 36.3284 134.145 36.1948 134.392 35.9386C134.65 35.6713 135.009 35.5377 135.369 35.6156L135.537 35.6491C136.076 35.7715 136.48 36.1726 136.671 36.6849C136.873 37.2304 137.345 37.6758 137.974 37.7983C138.524 37.9098 139.063 37.7427 139.456 37.4087C139.995 36.9408 140.759 36.7961 141.455 36.952H141.511C142.218 37.1191 142.78 37.6314 143.072 38.2884C143.341 38.9232 143.914 39.4133 144.655 39.5579C145.856 39.7919 147.024 39.0012 147.238 37.7983C147.429 36.7071 146.71 35.6045 145.621 35.3372V35.3261Z" fill="#6D77E9"/>
<path d="M114.314 42.3644C114.809 42.5312 115.37 42.4756 115.842 42.1638C116.369 41.8186 116.639 41.2283 116.616 40.6493C116.594 40.1036 116.819 39.5801 117.268 39.2683L117.414 39.168C117.717 38.9565 118.099 38.9565 118.436 39.1012C118.772 39.2461 119.165 39.2237 119.491 39.0009C119.828 38.7782 119.996 38.3996 119.985 38.0322C119.963 37.687 120.12 37.3528 120.412 37.1635H120.423C120.636 37.0076 120.906 36.9963 121.153 37.0856C121.411 37.1747 121.726 37.1191 121.939 36.8739C122.096 36.6958 122.152 36.4284 122.074 36.2057C121.916 35.738 121.378 35.5821 120.996 35.8271C120.782 35.972 120.67 36.2057 120.681 36.4396C120.681 36.6736 120.558 36.8851 120.367 37.0076L120.333 37.0298C120.052 37.2191 119.693 37.2637 119.39 37.1078C119.042 36.9297 118.604 36.9297 118.256 37.1635C117.93 37.3752 117.762 37.7314 117.762 38.099C117.762 38.4664 117.616 38.8116 117.301 39.0122L117.156 39.1012C116.695 39.3908 116.122 39.402 115.617 39.168C115.078 38.9231 114.438 38.9453 113.91 39.2905C113.439 39.6025 113.18 40.0924 113.135 40.6047C113.079 41.3175 112.653 41.9523 112.046 42.3309L112.001 42.3644C111.417 42.7318 110.665 42.832 110.036 42.5537C109.34 42.2529 108.509 42.3085 107.847 42.7986C106.948 43.4668 106.712 44.7476 107.308 45.6829C107.97 46.7187 109.351 47.0083 110.373 46.3289C110.991 45.9169 111.328 45.2487 111.339 44.5583C111.35 43.8344 111.665 43.155 112.271 42.743L112.316 42.7096C112.9 42.2975 113.663 42.1416 114.337 42.3753L114.314 42.3644Z" fill="#6D77E9"/>
<path d="M136.941 24.8131C136.447 24.646 135.885 24.7017 135.414 25.0135C134.886 25.3588 134.616 25.949 134.639 26.5281C134.661 27.0738 134.437 27.5972 133.987 27.9091L133.842 28.0093C133.538 28.2209 133.157 28.2209 132.82 28.0761C132.483 27.9313 132.09 27.9536 131.764 28.1763C131.416 28.4102 131.236 28.8 131.281 29.1898C131.315 29.5239 131.135 29.8357 130.855 30.025L130.821 30.0473C130.63 30.1698 130.383 30.2143 130.17 30.1252C129.956 30.025 129.698 30.0361 129.485 30.1809C129.103 30.4371 129.047 30.9939 129.417 31.3168C129.597 31.4727 129.867 31.5284 130.091 31.4505C130.405 31.3503 130.574 31.083 130.585 30.8157C130.596 30.5595 130.709 30.3145 130.922 30.1809H130.933C131.225 29.9804 131.596 29.9693 131.91 30.1141C132.247 30.27 132.663 30.2589 132.999 30.0361C133.325 29.8245 133.494 29.4682 133.494 29.1007C133.494 28.7332 133.639 28.3879 133.954 28.1875L134.1 28.0984C134.56 27.8088 135.133 27.7977 135.638 28.0315C136.177 28.2766 136.817 28.2543 137.345 27.9091C137.817 27.5972 138.075 27.1072 138.12 26.5949C138.176 25.8822 138.603 25.2474 139.209 24.8688L139.254 24.8465C139.872 24.4567 140.624 24.4233 141.309 24.6906C141.949 24.9467 142.712 24.891 143.33 24.479C144.352 23.7996 144.61 22.4187 143.903 21.4164C143.251 20.5144 141.971 20.2359 141.006 20.8039C140.298 21.2271 139.916 21.9733 139.939 22.7194C139.961 23.4099 139.58 24.0558 139.007 24.4567L138.962 24.4901C138.378 24.9022 137.614 25.0581 136.941 24.8242V24.8131Z" fill="#6D77E9"/>
<path d="M122.68 49.436V49.3804C122.815 48.6788 123.241 48.044 123.881 47.721C124.342 47.4873 124.701 47.0528 124.813 46.5071C124.937 45.8947 124.712 45.2822 124.274 44.8923C123.87 44.5249 123.646 44.0014 123.747 43.4557L123.78 43.2888C123.848 42.9324 124.106 42.6538 124.454 42.5203C124.791 42.3866 125.061 42.0971 125.139 41.7072C125.218 41.3064 125.072 40.9278 124.791 40.6716C124.533 40.4377 124.398 40.0925 124.465 39.7585V39.7361C124.521 39.4799 124.701 39.2906 124.937 39.1793C125.184 39.0569 125.364 38.8007 125.341 38.4777C125.319 38.2438 125.173 38.021 124.959 37.9098C124.51 37.6871 124.016 37.9542 123.926 38.3997C123.881 38.6448 123.96 38.8898 124.14 39.0457C124.308 39.2015 124.364 39.4465 124.319 39.6692V39.7026C124.252 40.0256 124.016 40.3152 123.702 40.4155C123.331 40.5267 123.028 40.8387 122.938 41.2508C122.86 41.6294 122.994 42.008 123.253 42.2529C123.522 42.5091 123.657 42.8655 123.578 43.2219L123.545 43.3888C123.421 43.9236 123.017 44.3244 122.5 44.5137C121.95 44.7142 121.501 45.1819 121.377 45.8054C121.265 46.3512 121.434 46.8857 121.77 47.2755C122.242 47.81 122.388 48.5675 122.231 49.2579V49.3135C122.074 49.9929 121.613 50.5831 120.962 50.8283C120.254 51.0954 119.704 51.7302 119.581 52.5433C119.423 53.6457 120.165 54.7147 121.254 54.9599C122.455 55.2383 123.646 54.4698 123.881 53.2671C124.027 52.5433 123.792 51.8304 123.309 51.3403C122.803 50.817 122.545 50.1154 122.669 49.4026L122.68 49.436Z" fill="#6D77E9"/>
<path d="M128.564 17.7413V17.7969C128.429 18.4985 128.002 19.1333 127.362 19.4563C126.902 19.6901 126.542 20.1245 126.43 20.6702C126.307 21.2827 126.531 21.8952 126.969 22.285C127.373 22.6525 127.598 23.1759 127.497 23.7216L127.463 23.8887C127.396 24.245 127.138 24.5234 126.79 24.6571C126.453 24.7907 126.183 25.0803 126.105 25.47C126.026 25.8821 126.183 26.283 126.486 26.528C126.745 26.7396 126.846 27.096 126.778 27.4189V27.4523C126.722 27.6751 126.576 27.8755 126.363 27.9646C126.138 28.0426 125.97 28.2319 125.914 28.4881C125.824 28.9335 126.183 29.3678 126.677 29.3344C126.924 29.3233 127.149 29.1674 127.25 28.9558C127.396 28.6662 127.329 28.3544 127.149 28.154C126.981 27.9646 126.879 27.7196 126.936 27.4635V27.4412C127.003 27.096 127.261 26.8398 127.587 26.7173C127.946 26.5948 128.227 26.2941 128.305 25.8932C128.384 25.5146 128.249 25.1359 127.991 24.8909C127.721 24.6348 127.587 24.2784 127.665 23.9221L127.699 23.755C127.823 23.2205 128.227 22.8195 128.743 22.6302C129.293 22.4297 129.743 21.962 129.866 21.3384C129.979 20.7927 129.81 20.2581 129.473 19.8683C129.002 19.3338 128.856 18.5765 129.013 17.886V17.8303C129.181 17.1287 129.698 16.5719 130.36 16.2824C131 16.0151 131.495 15.4471 131.64 14.7121C131.876 13.5205 131.079 12.3623 129.866 12.1507C128.766 11.9614 127.654 12.6741 127.385 13.7544C127.182 14.5451 127.452 15.3357 127.991 15.8592C128.496 16.338 128.687 17.0508 128.575 17.7413H128.564Z" fill="#6D77E9"/>
<path d="M126.711 48.3222C126.003 47.643 125.846 47.3535 125.801 46.6184C125.801 46.6072 125.801 46.596 125.801 46.585C125.801 46.585 125.801 46.2954 125.801 46.2842C125.846 45.5492 125.902 45.4045 126.453 44.8922L126.509 44.8366C127.036 44.3243 127.093 43.4555 126.621 42.8876C126.363 42.5871 126.003 42.4199 125.611 42.4309C125.251 42.4309 124.914 42.5646 124.656 42.832C124.633 42.8542 124.622 42.8764 124.6 42.8876C124.128 43.4555 124.173 44.3243 124.712 44.8366L124.768 44.8922C125.319 45.4157 125.408 45.5492 125.442 46.2842C125.442 46.2954 125.442 46.5738 125.442 46.585C125.442 46.585 125.442 46.6072 125.442 46.6184C125.397 47.3535 125.24 47.654 124.532 48.3222L124.454 48.3891C123.758 49.046 123.701 50.1822 124.308 50.9172C124.633 51.3068 125.116 51.5295 125.622 51.5185C126.116 51.5295 126.599 51.318 126.924 50.9172C127.542 50.1822 127.474 49.0573 126.778 48.3891L126.7 48.3222H126.711Z" fill="#6D77E9"/>
<path d="M126.711 18.8549C126.004 19.5343 125.846 19.8238 125.801 20.5589C125.801 20.57 125.801 20.5811 125.801 20.5922C125.801 20.5922 125.801 20.8818 125.801 20.8929C125.846 21.6279 125.903 21.7727 126.453 22.285L126.509 22.3407C127.037 22.853 127.093 23.7216 126.621 24.2896C126.363 24.5903 126.004 24.7573 125.611 24.7462C125.251 24.7462 124.914 24.6126 124.656 24.3453C124.634 24.323 124.622 24.3007 124.6 24.2896C124.128 23.7216 124.173 22.853 124.712 22.3407L124.768 22.285C125.319 21.7616 125.408 21.6279 125.442 20.8929C125.442 20.8818 125.442 20.6034 125.442 20.5922C125.442 20.5922 125.442 20.57 125.442 20.5589C125.397 19.8238 125.24 19.5231 124.533 18.8549L124.454 18.7881C123.758 18.1311 123.702 16.9951 124.308 16.2601C124.634 15.8703 125.116 15.6476 125.622 15.6587C126.116 15.6476 126.599 15.8592 126.924 16.2601C127.542 16.9951 127.475 18.1199 126.778 18.7881L126.7 18.8549H126.711Z" fill="#6D77E9"/>
<path d="M140.478 32.5084C139.793 33.21 139.501 33.3659 138.759 33.4104C138.748 33.4104 138.737 33.4104 138.726 33.4104C138.726 33.4104 138.434 33.4104 138.423 33.4104C137.682 33.3659 137.536 33.3102 137.019 32.7645L136.963 32.7088C136.446 32.1854 135.571 32.1297 134.998 32.5975C134.695 32.8536 134.526 33.21 134.537 33.5998C134.537 33.9561 134.672 34.2902 134.942 34.5464C134.964 34.5686 134.987 34.5798 134.998 34.602C135.571 35.0698 136.446 35.0252 136.963 34.4907L137.019 34.435C137.547 33.8893 137.682 33.8002 138.423 33.7668C138.434 33.7668 138.715 33.7668 138.726 33.7668C138.726 33.7668 138.748 33.7668 138.759 33.7668C139.501 33.8113 139.804 33.9672 140.478 34.6689L140.545 34.7468C141.207 35.4373 142.353 35.493 143.094 34.8916C143.487 34.5686 143.712 34.0898 143.7 33.5886C143.712 33.0986 143.498 32.6197 143.094 32.2968C142.353 31.6843 141.219 31.7511 140.545 32.4415L140.478 32.5195V32.5084Z" fill="#6D77E9"/>
<path d="M110.766 32.5084C111.451 33.21 111.743 33.3659 112.484 33.4104C112.495 33.4104 112.506 33.4104 112.518 33.4104C112.518 33.4104 112.81 33.4104 112.821 33.4104C113.562 33.3659 113.708 33.3102 114.224 32.7645L114.281 32.7088C114.797 32.1854 115.673 32.1297 116.246 32.5975C116.549 32.8536 116.717 33.21 116.706 33.5998C116.706 33.9561 116.571 34.2902 116.302 34.5464C116.279 34.5686 116.257 34.5798 116.246 34.602C115.673 35.0698 114.797 35.0252 114.281 34.4907L114.224 34.435C113.697 33.8893 113.562 33.8002 112.821 33.7668C112.81 33.7668 112.529 33.7668 112.518 33.7668C112.518 33.7668 112.495 33.7668 112.484 33.7668C111.743 33.8113 111.44 33.9672 110.766 34.6689L110.699 34.7468C110.036 35.4373 108.891 35.493 108.149 34.8916C107.756 34.5686 107.532 34.0898 107.543 33.5886C107.532 33.0986 107.745 32.6197 108.149 32.2968C108.891 31.6843 110.025 31.7511 110.699 32.4415L110.766 32.5195V32.5084Z" fill="#6D77E9"/>
<path d="M139.771 38.2327C138.872 38.6223 138.535 38.6557 137.828 38.4108C137.817 38.4108 137.805 38.4108 137.794 38.4108C137.794 38.4108 137.525 38.2993 137.513 38.2883C136.84 37.9653 136.739 37.8651 136.458 37.1635L136.424 37.0856C136.155 36.4062 135.357 36.0164 134.65 36.2391C134.268 36.3506 133.976 36.6289 133.83 36.9854C133.684 37.3084 133.684 37.6758 133.83 38.01C133.83 38.0322 133.853 38.0544 133.864 38.0766C134.212 38.7226 135.043 39.0122 135.717 38.7226L135.795 38.6892C136.492 38.3886 136.649 38.3552 137.356 38.6001C137.368 38.6001 137.626 38.7114 137.637 38.7114C137.637 38.7114 137.66 38.7114 137.671 38.7226C138.344 39.0456 138.558 39.3017 138.917 40.2149L138.951 40.3151C139.299 41.1948 140.332 41.6962 141.242 41.4176C141.736 41.2617 142.117 40.9165 142.297 40.4488C142.499 40.0033 142.477 39.4798 142.241 39.0234C141.792 38.1768 140.714 37.8094 139.838 38.1881L139.737 38.2327H139.771Z" fill="#6D77E9"/>
<path d="M112.316 26.9624C112.675 27.8756 112.888 28.1317 113.562 28.4547C113.573 28.4547 113.585 28.4547 113.596 28.4658C113.596 28.4658 113.865 28.5772 113.876 28.5772C114.584 28.8222 114.73 28.8222 115.426 28.5215L115.505 28.4881C116.178 28.1985 117.02 28.4881 117.357 29.134C117.548 29.4792 117.56 29.8801 117.402 30.2365C117.279 30.5706 117.009 30.8267 116.661 30.9604C116.639 30.9604 116.605 30.9827 116.583 30.9827C115.875 31.2054 115.078 30.8156 114.808 30.1363L114.775 30.0583C114.494 29.3567 114.404 29.2231 113.73 28.9001C113.719 28.9001 113.461 28.7888 113.45 28.7776C113.45 28.7776 113.427 28.7776 113.416 28.7776C112.709 28.5326 112.372 28.566 111.473 28.9558L111.383 29.0004C110.508 29.379 109.43 29.0004 108.981 28.1651C108.745 27.7085 108.722 27.1962 108.924 26.7396C109.104 26.283 109.486 25.9267 109.98 25.7708C110.901 25.4923 111.922 25.9823 112.282 26.8733L112.316 26.9735V26.9624Z" fill="#6D77E9"/>
<path d="M136.896 43.2441C135.908 43.2663 135.582 43.1663 135.032 42.6762C135.032 42.6762 135.02 42.665 135.009 42.654C135.009 42.654 134.807 42.4422 134.796 42.4422C134.302 41.8967 134.246 41.7518 134.257 40.9946V40.9165C134.268 40.1815 133.684 39.5245 132.943 39.4577C132.55 39.4243 132.168 39.5579 131.899 39.8363C131.64 40.0815 131.506 40.4267 131.517 40.7831C131.517 40.8053 131.517 40.8387 131.517 40.8609C131.584 41.5959 132.247 42.1751 132.988 42.1639H133.066C133.83 42.1417 133.987 42.1861 134.538 42.6762C134.538 42.6762 134.751 42.8767 134.751 42.8877C134.751 42.8877 134.762 42.8989 134.773 42.9101C135.267 43.4556 135.369 43.7786 135.346 44.7588V44.8589C135.324 45.8057 136.087 46.6519 137.042 46.741C137.558 46.7856 138.052 46.6073 138.389 46.2511C138.748 45.9169 138.928 45.427 138.883 44.9147C138.793 43.9679 137.94 43.2107 136.985 43.2329H136.884L136.896 43.2441Z" fill="#6D77E9"/>
<path d="M115.886 22.4076C115.864 23.3876 115.965 23.7106 116.459 24.2563C116.459 24.2563 116.47 24.2674 116.481 24.2785C116.481 24.2785 116.695 24.479 116.695 24.4901C117.245 24.9801 117.391 25.0358 118.155 25.0247H118.233C118.974 25.0135 119.637 25.5927 119.704 26.3277C119.738 26.7174 119.603 27.0961 119.323 27.3634C119.075 27.6195 118.727 27.7532 118.368 27.742C118.346 27.742 118.312 27.742 118.289 27.742C117.548 27.6752 116.964 27.0181 116.976 26.2831V26.2052C116.998 25.4479 116.953 25.292 116.459 24.7463C116.459 24.7463 116.257 24.5347 116.246 24.5347C116.246 24.5347 116.235 24.5235 116.223 24.5124C115.673 24.0224 115.348 23.9222 114.359 23.9444H114.258C113.304 23.9667 112.45 23.2094 112.361 22.2628C112.316 21.7505 112.495 21.2605 112.854 20.9264C113.191 20.5701 113.685 20.3919 114.202 20.4364C115.157 20.5255 115.92 21.3719 115.898 22.3185V22.4187L115.886 22.4076Z" fill="#6D77E9"/>
<path d="M132.314 46.7856C131.393 46.4291 131.135 46.2174 130.809 45.5492C130.809 45.5382 130.81 45.527 130.798 45.516C130.798 45.516 130.686 45.2486 130.686 45.2374C130.439 44.5358 130.439 44.3911 130.742 43.7007L130.776 43.6227C131.068 42.9545 130.776 42.1192 130.125 41.7852C129.776 41.5959 129.372 41.5847 129.013 41.7405C128.676 41.863 128.418 42.1304 128.283 42.4756C128.283 42.4978 128.261 42.5312 128.261 42.5536C128.036 43.2553 128.429 44.0459 129.114 44.3131L129.193 44.3465C129.9 44.6251 130.035 44.7141 130.36 45.3823C130.36 45.3933 130.473 45.6495 130.484 45.6607C130.484 45.6607 130.484 45.6829 130.484 45.6941C130.731 46.3957 130.697 46.7297 130.304 47.6206L130.259 47.7099C129.877 48.5784 130.259 49.6477 131.101 50.0931C131.562 50.3268 132.079 50.3493 132.539 50.1487C132.999 49.9706 133.359 49.5918 133.516 49.1019C133.796 48.1888 133.302 47.1752 132.404 46.819L132.303 46.7856H132.314Z" fill="#6D77E9"/>
<path d="M120.95 19.5677C120.558 20.4587 120.524 20.7928 120.771 21.4943C120.771 21.5055 120.771 21.5166 120.771 21.5278C120.771 21.5278 120.883 21.795 120.894 21.8062C121.22 22.4744 121.321 22.5746 122.029 22.853L122.107 22.8864C122.792 23.1537 123.185 23.9444 122.961 24.646C122.848 25.0247 122.567 25.3142 122.208 25.459C121.882 25.6038 121.512 25.6038 121.175 25.459C121.153 25.459 121.13 25.4367 121.108 25.4256C120.456 25.0803 120.164 24.2562 120.456 23.588L120.49 23.5101C120.793 22.8196 120.827 22.6637 120.58 21.9621C120.58 21.951 120.468 21.6948 120.468 21.6837C120.468 21.6837 120.468 21.6614 120.456 21.6503C120.131 20.9821 119.873 20.7705 118.952 20.4141L118.851 20.3807C117.964 20.0355 117.458 19.0109 117.739 18.1088C117.896 17.6188 118.244 17.2402 118.716 17.062C119.165 16.8615 119.693 16.8838 120.153 17.1177C121.007 17.5631 121.377 18.6323 120.995 19.5009L120.95 19.6011V19.5677Z" fill="#6D77E9"/>
<path d="M130.304 19.5677C130.697 20.4587 130.731 20.7928 130.484 21.4943C130.484 21.5055 130.484 21.5166 130.484 21.5278C130.484 21.5278 130.372 21.795 130.36 21.8062C130.035 22.4744 129.934 22.5746 129.226 22.853L129.148 22.8864C128.463 23.1537 128.07 23.9444 128.294 24.646C128.406 25.0247 128.687 25.3142 129.047 25.459C129.372 25.6038 129.743 25.6038 130.08 25.459C130.102 25.459 130.125 25.4367 130.147 25.4256C130.798 25.0803 131.09 24.2562 130.798 23.588L130.765 23.5101C130.461 22.8196 130.428 22.6637 130.675 21.9621C130.675 21.951 130.787 21.6948 130.787 21.6837C130.787 21.6837 130.787 21.6614 130.798 21.6503C131.124 20.9821 131.382 20.7705 132.303 20.4141L132.404 20.3807C133.291 20.0355 133.796 19.0109 133.516 18.1088C133.359 17.6188 133.011 17.2402 132.539 17.062C132.09 16.8615 131.562 16.8838 131.101 17.1177C130.248 17.5631 129.877 18.6323 130.259 19.5009L130.304 19.6011V19.5677Z" fill="#6D77E9"/>
<path d="M118.941 46.7856C119.862 46.4291 120.12 46.2174 120.445 45.5492C120.445 45.5382 120.445 45.527 120.457 45.516C120.457 45.516 120.569 45.2486 120.569 45.2374C120.816 44.5358 120.816 44.3911 120.513 43.7007L120.479 43.6227C120.187 42.9545 120.479 42.1192 121.13 41.7852C121.479 41.5959 121.883 41.5847 122.242 41.7405C122.579 41.863 122.837 42.1304 122.972 42.4756C122.972 42.4978 122.995 42.5312 122.995 42.5536C123.219 43.2553 122.826 44.0459 122.141 44.3131L122.062 44.3465C121.355 44.6251 121.22 44.7141 120.895 45.3823C120.895 45.3933 120.782 45.6495 120.771 45.6607C120.771 45.6607 120.771 45.6829 120.771 45.6941C120.524 46.3957 120.558 46.7297 120.951 47.6206L120.996 47.7099C121.377 48.5784 120.996 49.6477 120.153 50.0931C119.693 50.3268 119.177 50.3493 118.716 50.1487C118.256 49.9706 117.897 49.5918 117.739 49.1019C117.458 48.1888 117.953 47.1752 118.851 46.819L118.952 46.7856H118.941Z" fill="#6D77E9"/>
<path d="M135.357 22.4076C135.38 23.3876 135.279 23.7106 134.785 24.2563C134.785 24.2563 134.773 24.2674 134.762 24.2785C134.762 24.2785 134.549 24.479 134.549 24.4901C133.999 24.9801 133.853 25.0358 133.089 25.0247H133.01C132.27 25.0135 131.607 25.5927 131.54 26.3277C131.506 26.7174 131.641 27.0961 131.921 27.3634C132.168 27.6195 132.517 27.7532 132.876 27.742C132.898 27.742 132.932 27.742 132.954 27.742C133.696 27.6752 134.279 27.0181 134.268 26.2831V26.2052C134.246 25.4479 134.291 25.292 134.785 24.7463C134.785 24.7463 134.987 24.5347 134.998 24.5347C134.998 24.5347 135.009 24.5235 135.021 24.5124C135.571 24.0224 135.896 23.9222 136.885 23.9444H136.986C137.94 23.9667 138.793 23.2094 138.883 22.2628C138.928 21.7505 138.749 21.2605 138.389 20.9264C138.052 20.5701 137.558 20.3919 137.042 20.4364C136.087 20.5255 135.324 21.3719 135.346 22.3185V22.4187L135.357 22.4076Z" fill="#6D77E9"/>
<path d="M114.348 43.2441C115.336 43.2663 115.662 43.1663 116.212 42.6762C116.212 42.6762 116.223 42.665 116.235 42.654C116.235 42.654 116.437 42.4422 116.448 42.4422C116.942 41.8967 116.998 41.7518 116.987 40.9946V40.9165C116.976 40.1815 117.56 39.5245 118.301 39.4577C118.694 39.4243 119.075 39.5579 119.345 39.8363C119.603 40.0815 119.738 40.4267 119.727 40.7831C119.727 40.8053 119.727 40.8387 119.727 40.8609C119.659 41.5959 118.997 42.1751 118.256 42.1639H118.177C117.414 42.1417 117.256 42.1861 116.706 42.6762C116.706 42.6762 116.493 42.8767 116.493 42.8877C116.493 42.8877 116.481 42.8989 116.47 42.9101C115.976 43.4556 115.875 43.7786 115.898 44.7588V44.8589C115.92 45.8057 115.157 46.6519 114.202 46.741C113.685 46.7856 113.191 46.6073 112.854 46.2511C112.495 45.9169 112.316 45.427 112.361 44.9147C112.45 43.9679 113.304 43.2107 114.258 43.2329H114.359L114.348 43.2441Z" fill="#6D77E9"/>
<path d="M138.928 26.9624C138.569 27.8756 138.355 28.1317 137.682 28.4547C137.67 28.4547 137.659 28.4547 137.648 28.4658C137.648 28.4658 137.378 28.5772 137.367 28.5772C136.66 28.8222 136.514 28.8222 135.817 28.5215L135.739 28.4881C135.065 28.1985 134.223 28.4881 133.886 29.134C133.695 29.4792 133.684 29.8801 133.841 30.2365C133.965 30.5706 134.234 30.8267 134.582 30.9604C134.605 30.9604 134.638 30.9827 134.661 30.9827C135.368 31.2054 136.166 30.8156 136.435 30.1363L136.469 30.0583C136.749 29.3567 136.839 29.2231 137.513 28.9001C137.524 28.9001 137.783 28.7888 137.794 28.7776C137.794 28.7776 137.816 28.7776 137.827 28.7776C138.535 28.5326 138.872 28.566 139.77 28.9558L139.86 29.0004C140.736 29.379 141.814 29.0004 142.263 28.1651C142.499 27.7085 142.521 27.1962 142.319 26.7396C142.139 26.283 141.758 25.9267 141.263 25.7708C140.343 25.4923 139.321 25.9823 138.962 26.8733L138.928 26.9735V26.9624Z" fill="#6D77E9"/>
<path d="M111.485 38.2327C112.383 38.6223 112.72 38.6557 113.427 38.4108C113.438 38.4108 113.45 38.4108 113.461 38.4108C113.461 38.4108 113.73 38.2993 113.742 38.2883C114.415 37.9653 114.516 37.8651 114.797 37.1635L114.831 37.0856C115.1 36.4062 115.898 36.0164 116.605 36.2391C116.987 36.3506 117.279 36.6289 117.425 36.9854C117.571 37.3084 117.571 37.6758 117.425 38.01C117.425 38.0322 117.402 38.0544 117.391 38.0766C117.043 38.7226 116.212 39.0122 115.538 38.7226L115.46 38.6892C114.763 38.3886 114.606 38.3552 113.899 38.6001C113.887 38.6001 113.629 38.7114 113.618 38.7114C113.618 38.7114 113.596 38.7114 113.584 38.7226C112.911 39.0456 112.697 39.3017 112.338 40.2149L112.304 40.3151C111.956 41.1948 110.923 41.6962 110.014 41.4176C109.519 41.2617 109.138 40.9165 108.958 40.4488C108.756 40.0033 108.778 39.4798 109.014 39.0234C109.463 38.1768 110.541 37.8094 111.417 38.1881L111.518 38.2327H111.485Z" fill="#6D77E9"/>
<path d="M64.9511 71.1183C64.9511 77.9363 78.4693 77.2202 78.4693 84.6971C78.4693 89.6244 73.761 91.4865 69.6883 91.4865C66.8864 91.4865 63.969 90.5984 62.4381 88.9942C61.4561 87.9342 60.9939 86.6737 60.9939 85.4992C60.9939 83.5512 62.2937 81.861 64.8356 81.861C64.98 81.861 65.1244 81.8897 65.2689 81.8897C64.7489 82.8923 64.489 84.0668 64.489 85.27C64.489 88.2207 66.1354 91.1714 69.7749 91.1714C70.7281 91.1714 75.0031 91.0568 75.0031 86.817C75.0031 79.6552 61.3983 80.9443 61.3983 72.7798C61.3983 68.5114 65.1244 66.8212 69.0528 66.8212C70.9014 66.8212 75.4075 67.4515 77.0539 70.2302C77.4583 70.9178 77.6894 71.6912 77.6894 72.4361C77.6894 74.069 76.6207 75.5586 74.2521 75.8164C74.3099 75.3008 74.3387 74.7851 74.3387 74.2981C74.3387 70.5167 72.6923 67.1363 69.0239 67.1363C67.7241 67.1363 64.9511 67.652 64.9511 71.1183ZM88.3891 75.1576C93.3284 75.1576 96.188 78.8244 96.188 83.322C96.188 87.8196 93.3284 91.4865 88.3891 91.4865C83.4786 91.4865 80.619 87.8196 80.619 83.322C80.619 78.8244 83.4786 75.1576 88.3891 75.1576ZM88.3891 91.2573C91.2487 91.2573 92.433 87.705 92.433 83.322C92.433 78.939 91.2487 75.3867 88.3891 75.3867C85.5584 75.3867 84.3741 78.939 84.3741 83.322C84.3741 87.705 85.5584 91.2573 88.3891 91.2573ZM104.023 91.4865H98.073V91.2573C98.6796 91.2573 99.1706 90.6271 99.1706 88.765V69.6C99.1706 68.6546 99.0551 68.053 98.8529 67.652C98.6507 67.2796 98.3907 67.1077 98.073 67.1077V66.8785H98.3907C99.0551 66.8785 99.8639 66.8212 100.759 66.592C101.684 66.3342 102.406 66.0191 102.926 65.704V88.765C102.926 89.6817 103.07 90.3119 103.243 90.713C103.446 91.0854 103.734 91.2573 104.023 91.2573V91.4865ZM111.081 75.4154V89.0515C111.081 89.5385 111.168 90.5125 112.266 90.5125C113.739 90.5125 114.316 88.3926 114.316 88.3926L114.49 88.4785C114.49 88.4785 113.71 91.4865 110.735 91.4865C107.702 91.4865 107.297 89.166 107.297 88.2493V75.4154H104.582V75.1576C110.157 75.1576 110.821 70.4021 110.821 70.4021H111.081V75.1576H114.49V75.4154H111.081ZM123.121 75.1576C128.06 75.1576 130.92 78.8244 130.92 83.322C130.92 87.8196 128.06 91.4865 123.121 91.4865C118.21 91.4865 115.351 87.8196 115.351 83.322C115.351 78.8244 118.21 75.1576 123.121 75.1576ZM123.121 91.2573C125.98 91.2573 127.165 87.705 127.165 83.322C127.165 78.939 125.98 75.3867 123.121 75.3867C120.29 75.3867 119.106 78.939 119.106 83.322C119.106 87.705 120.29 91.2573 123.121 91.2573ZM143.348 75.1576C147.074 75.1576 149.24 78.0796 149.24 82.5772C149.24 87.9056 146.121 91.4865 141.181 91.4865C139.65 91.4865 138.495 91.0568 137.657 90.5125V98.2186C137.657 99.1353 137.773 99.7655 137.975 100.138C138.177 100.539 138.437 100.682 138.726 100.682V100.94H132.805V100.682C133.411 100.682 133.874 100.052 133.874 98.2186V79.0249C133.874 78.1082 133.758 77.5066 133.556 77.1056C133.382 76.7045 133.094 76.5613 132.805 76.5613V76.3321H133.122C133.758 76.3321 134.567 76.2748 135.491 76.017C136.386 75.7878 137.109 75.444 137.657 75.1576V80.5432C138.351 77.2775 140.43 75.1576 143.348 75.1576ZM140.777 91.2C144.272 91.2 145.485 87.1034 145.485 82.7204C145.485 78.6812 144.619 76.1029 142.163 76.1029C139.882 76.1029 138.12 78.4233 137.657 81.2881V90.1687C138.466 90.8276 139.535 91.2 140.777 91.2ZM156.473 90.6844C156.675 91.0854 156.935 91.2286 157.253 91.2286V91.4865H151.302V91.2286C151.909 91.2286 152.4 90.5984 152.4 88.765V79.0249C152.4 78.1082 152.285 77.478 152.082 77.1056C151.88 76.7045 151.62 76.5326 151.302 76.5326V76.3034H151.707C152.342 76.3034 153.122 76.2462 153.989 76.017C154.913 75.7878 155.635 75.444 156.155 75.1576V88.765C156.155 89.6817 156.271 90.3119 156.473 90.6844ZM154.278 72.5507C152.862 72.5507 151.909 71.4907 151.909 70.1729C151.909 68.8838 152.776 67.8239 154.278 67.8239C155.722 67.8239 156.675 68.8838 156.675 70.1729C156.675 71.4907 155.722 72.5507 154.278 72.5507ZM172.258 90.7416C173.297 90.7416 173.644 89.0801 173.644 89.0801L173.817 89.1374C173.817 89.1374 173.5 91.4865 170.958 91.4865C168.214 91.4865 167.954 89.4525 167.925 88.4212C166.798 90.2546 165.065 91.4865 162.61 91.4865C160.646 91.4865 158.884 90.1687 158.884 87.8196C158.884 84.7544 161.137 83.408 163.39 82.5772C165.643 81.7751 167.925 81.5172 167.925 80.6578V78.7671C167.925 77.1629 167.78 75.3867 165.787 75.3867H165.73V75.1576H165.758C168.82 75.1576 171.68 76.3034 171.68 80.0562V89.5671C171.68 90.0255 171.709 90.7416 172.258 90.7416ZM167.925 88.1634V81.1162C166.943 82.2907 162.408 82.2048 162.408 86.8743C162.408 88.5645 163.188 89.739 164.863 89.739C166.307 89.739 167.26 89.0801 167.925 88.1634ZM190.888 90.713C191.091 91.0854 191.35 91.2573 191.668 91.2573V91.4865H185.718V91.2573C186.325 91.2573 186.816 90.6271 186.816 88.7936V79.1109C186.816 77.5066 186.267 75.7591 184.245 75.7591C182.309 75.7591 180.316 77.3634 179.421 79.6265V88.7936C179.421 89.7103 179.537 90.3119 179.739 90.713C179.941 91.0854 180.201 91.2573 180.519 91.2573V91.4865H174.568V91.2573C175.175 91.2573 175.666 90.6271 175.666 88.7936V69.4568C172.026 72.0064 166.943 74.069 165.21 74.8424C162.581 76.017 162.177 78.6239 162.177 80.1995C162.177 80.9443 162.263 81.4599 162.263 81.4886C160.848 81.4886 159.779 80.7724 159.779 79.2828C159.779 79.1395 159.779 79.0249 159.808 78.8817C160.068 76.6472 162.466 75.7878 168.907 72.9231C175.435 70.0011 178.352 67.2509 179.421 65.704V79.1682C180.49 76.6759 182.829 75.1576 185.718 75.1576C188.78 75.1576 190.571 76.7618 190.571 80.0276V88.7936C190.571 89.7103 190.686 90.3119 190.888 90.713Z" fill="#6D77E9"/>
</g>
<defs>
<clipPath id="clip0_1953_2509">
<rect width="252" height="113" fill="white"/>
</clipPath>
</defs>
</svg>
